<?xml version="1.0" standalone="no"?><!DOCTYPE svg PUBLIC "-//W3C//DTD SVG 1.1//EN" "http://www.w3.org/Graphics/SVG/1.1/DTD/svg11.dtd"><svg t="1726391659909" class="icon" viewBox="0 0 1024 1024" version="1.1" xmlns="http://www.w3.org/2000/svg" p-id="5662" width="56" height="56" xmlns:xlink="http://www.w3.org/1999/xlink"><path d="M721.454545 209.454545c-53.527273 0-104.727273 25.6-132.654545 69.818182h267.636364c-30.254545-44.218182-81.454545-69.818182-134.981819-69.818182z" fill="#F5B445" p-id="5663"></path><path d="M893.672727 325.818182H549.236364c-6.981818 0-13.963636-4.654545-18.618182-9.309091-4.654545-6.981818-4.654545-13.963636-2.327273-20.945455C558.545455 214.109091 635.345455 162.909091 721.454545 162.909091s162.909091 51.2 193.163637 130.327273c2.327273 6.981818 2.327273 16.290909-2.327273 20.945454-2.327273 6.981818-11.636364 11.636364-18.618182 11.636364z m-304.872727-46.545455h267.636364c-30.254545-44.218182-79.127273-69.818182-132.654546-69.818182s-107.054545 25.6-134.981818 69.818182z" fill="#0B3A5B" p-id="5664"></path><path d="M742.4 279.272727c0-6.981818 2.327273-16.290909 2.327273-23.272727 0-16.290909-2.327273-30.254545-4.654546-44.218182-6.981818-2.327273-11.636364-2.327273-18.618182-2.327273-55.854545 0-104.727273 27.927273-132.654545 69.818182h153.6z" fill="#EAA239" p-id="5665"></path><path d="M458.472727 279.272727c-20.945455-67.490909-83.781818-116.363636-155.927272-116.363636s-134.981818 48.872727-155.927273 116.363636h311.854545z" fill="#F5B445" p-id="5666"></path><path d="M486.4 325.818182H118.690909c-6.981818 0-13.963636-2.327273-16.290909-6.981818-4.654545-4.654545-6.981818-11.636364-4.654545-18.618182C107.054545 195.490909 197.818182 116.363636 302.545455 116.363636s195.490909 79.127273 207.127272 183.854546c0 6.981818-2.327273 13.963636-4.654545 18.618182-4.654545 4.654545-11.636364 6.981818-18.618182 6.981818zM146.618182 279.272727h311.854545c-20.945455-67.490909-83.781818-116.363636-155.927272-116.363636s-134.981818 48.872727-155.927273 116.363636z" fill="#0B3A5B" p-id="5667"></path><path d="M349.090909 279.272727l51.2-51.2c-53.527273-53.527273-141.963636-53.527273-197.818182 0-16.290909 16.290909-25.6 32.581818-32.581818 51.2H349.090909z" fill="#FFCA5D" p-id="5668"></path><path d="M351.418182 279.272727h321.163636c2.327273-6.981818 2.327273-16.290909 2.327273-23.272727 0-90.763636-72.145455-162.909091-162.909091-162.909091s-162.909091 72.145455-162.909091 162.909091c0 6.981818 0 16.290909 2.327273 23.272727z" fill="#F5B445" p-id="5669"></path><path d="M691.2 325.818182H332.8c-11.636364 0-20.945455-6.981818-23.272727-18.618182-4.654545-16.290909-6.981818-34.909091-6.981818-51.2 0-116.363636 93.090909-209.454545 209.454545-209.454545s209.454545 93.090909 209.454545 209.454545c0 16.290909-2.327273 34.909091-6.981818 51.2-2.327273 11.636364-11.636364 18.618182-23.272727 18.618182z m-339.781818-46.545455h321.163636c2.327273-6.981818 2.327273-16.290909 2.327273-23.272727 0-90.763636-72.145455-162.909091-162.909091-162.909091s-162.909091 72.145455-162.909091 162.909091c0 6.981818 0 16.290909 2.327273 23.272727z" fill="#0B3A5B" p-id="5670"></path><path d="M488.727273 279.272727l121.018182-121.018182c-53.527273-53.527273-141.963636-53.527273-197.818182 0-32.581818 32.581818-46.545455 79.127273-39.563637 121.018182h116.363637z" fill="#FFCA5D" p-id="5671"></path><path d="M721.454545 581.818182v93.090909c0 25.6 20.945455 46.545455 46.545455 46.545454h186.181818v186.181819c0 25.6-20.945455 46.545455-46.545454 46.545454H116.363636c-25.6 0-46.545455-20.945455-46.545454-46.545454V349.090909c0-25.6 20.945455-46.545455 46.545454-46.545454h791.272728c25.6 0 46.545455 20.945455 46.545454 46.545454v186.181818h-186.181818c-25.6 0-46.545455 20.945455-46.545455 46.545455z" fill="#DA8C36" p-id="5672"></path><path d="M907.636364 977.454545H116.363636c-39.563636 0-69.818182-30.254545-69.818181-69.818181V349.090909c0-39.563636 30.254545-69.818182 69.818181-69.818182h791.272728c39.563636 0 69.818182 30.254545 69.818181 69.818182v186.181818c0 13.963636-9.309091 23.272727-23.272727 23.272728h-186.181818c-13.963636 0-23.272727 9.309091-23.272727 23.272727v93.090909c0 13.963636 9.309091 23.272727 23.272727 23.272727h186.181818c13.963636 0 23.272727 9.309091 23.272727 23.272727v186.181819c0 39.563636-30.254545 69.818182-69.818181 69.818181zM116.363636 325.818182c-13.963636 0-23.272727 9.309091-23.272727 23.272727v558.545455c0 13.963636 9.309091 23.272727 23.272727 23.272727h791.272728c13.963636 0 23.272727-9.309091 23.272727-23.272727v-162.909091h-162.909091c-39.563636 0-69.818182-30.254545-69.818182-69.818182v-93.090909c0-39.563636 30.254545-69.818182 69.818182-69.818182h162.909091v-162.909091c0-13.963636-9.309091-23.272727-23.272727-23.272727H116.363636z" fill="#0B3A5B" p-id="5673"></path><path d="M907.636364 325.818182v186.181818h23.272727v-162.909091c0-13.963636-9.309091-23.272727-23.272727-23.272727zM698.181818 674.909091l6.981818 27.927273c9.309091 39.563636 44.218182 65.163636 83.781819 65.163636H861.090909c25.6 0 46.545455 20.945455 46.545455 46.545455v23.272727c0 25.6-20.945455 46.545455-46.545455 46.545454H525.963636c-16.290909 0-25.6-13.963636-23.272727-30.254545 9.309091-30.254545 11.636364-62.836364 6.981818-95.418182-13.963636-102.4-97.745455-183.854545-197.818182-197.818182-90.763636-11.636364-169.890909 25.6-218.763636 90.763637v256c0 13.963636 9.309091 23.272727 23.272727 23.272727h791.272728c13.963636 0 23.272727-9.309091 23.272727-23.272727V674.909091H698.181818z" fill="#C87629" p-id="5674"></path><path d="M232.727273 744.727273m-186.181818 0a186.181818 186.181818 0 1 0 372.363636 0 186.181818 186.181818 0 1 0-372.363636 0Z" fill="#F5B445" p-id="5675"></path><path d="M232.727273 977.454545C104.727273 977.454545 0 872.727273 0 744.727273s104.727273-232.727273 232.727273-232.727273 232.727273 104.727273 232.727272 232.727273-104.727273 232.727273-232.727272 232.727272z m0-418.90909c-102.4 0-186.181818 83.781818-186.181818 186.181818s83.781818 186.181818 186.181818 186.181818 186.181818-83.781818 186.181818-186.181818-83.781818-186.181818-186.181818-186.181818z" fill="#0B3A5B" p-id="5676"></path><path d="M118.690909 858.763636c-62.836364-62.836364-62.836364-167.563636 0-230.4s167.563636-62.836364 230.4 0l-230.4 230.4z" fill="#FFCA5D" p-id="5677"></path><path d="M316.509091 733.090909c4.654545-11.636364 9.309091-23.272727 9.309091-34.909091 0-39.563636-30.254545-69.818182-69.818182-69.818182 0-13.963636-9.309091-23.272727-23.272727-23.272727s-23.272727 9.309091-23.272728 23.272727H162.909091c-13.963636 0-23.272727 9.309091-23.272727 23.272728s9.309091 23.272727 23.272727 23.272727v139.636364c-13.963636 0-23.272727 9.309091-23.272727 23.272727s9.309091 23.272727 23.272727 23.272727h46.545454c0 13.963636 9.309091 23.272727 23.272728 23.272727s23.272727-9.309091 23.272727-23.272727h23.272727c39.563636 0 69.818182-30.254545 69.818182-69.818182 0-25.6-13.963636-46.545455-32.581818-58.181818zM256 674.909091c13.963636 0 23.272727 9.309091 23.272727 23.272727s-9.309091 23.272727-23.272727 23.272727H209.454545v-46.545454h46.545455z m23.272727 139.636364H209.454545v-46.545455h69.818182c13.963636 0 23.272727 9.309091 23.272728 23.272727s-9.309091 23.272727-23.272728 23.272728z" fill="#0B3A5B" p-id="5678"></path><path d="M1000.727273 581.818182v93.090909c0 25.6-20.945455 46.545455-46.545455 46.545454h-186.181818c-25.6 0-46.545455-20.945455-46.545455-46.545454v-93.090909c0-25.6 20.945455-46.545455 46.545455-46.545455h186.181818c25.6 0 46.545455 20.945455 46.545455 46.545455z" fill="#DA8C36" p-id="5679"></path><path d="M954.181818 558.545455v93.090909c0 13.963636-9.309091 23.272727-23.272727 23.272727h-186.181818c0 13.963636 9.309091 23.272727 23.272727 23.272727h186.181818c13.963636 0 23.272727-9.309091 23.272727-23.272727v-93.090909c0-13.963636-9.309091-23.272727-23.272727-23.272727z" fill="#C87629" p-id="5680"></path><path d="M814.545455 628.363636m-23.272728 0a23.272727 23.272727 0 1 0 46.545455 0 23.272727 23.272727 0 1 0-46.545455 0Z" fill="#0B3A5B" p-id="5681"></path><path d="M872.727273 442.181818h-93.090909c-6.981818 0-11.636364-4.654545-11.636364-11.636363s4.654545-11.636364 11.636364-11.636364h93.090909c6.981818 0 11.636364 4.654545 11.636363 11.636364s-4.654545 11.636364-11.636363 11.636363z" fill="#0B3A5B" p-id="5682"></path><path d="M686.545455 349.090909c-16.290909 0-27.927273 9.309091-32.581819 23.272727h-176.872727c-6.981818 0-11.636364 4.654545-11.636364 11.636364s4.654545 11.636364 11.636364 11.636364h176.872727c4.654545 13.963636 18.618182 23.272727 32.581819 23.272727 18.618182 0 34.909091-16.290909 34.90909-34.909091s-16.290909-34.909091-34.90909-34.909091z m0 46.545455c-6.981818 0-11.636364-4.654545-11.636364-11.636364s4.654545-11.636364 11.636364-11.636364 11.636364 4.654545 11.636363 11.636364-4.654545 11.636364-11.636363 11.636364zM290.909091 418.909091c-16.290909 0-27.927273 9.309091-32.581818 23.272727H93.090909c-6.981818 0-11.636364 4.654545-11.636364 11.636364s4.654545 11.636364 11.636364 11.636363h165.236364c4.654545 13.963636 18.618182 23.272727 32.581818 23.272728 18.618182 0 34.909091-16.290909 34.909091-34.909091s-16.290909-34.909091-34.909091-34.909091z m0 46.545454c-6.981818 0-11.636364-4.654545-11.636364-11.636363s4.654545-11.636364 11.636364-11.636364 11.636364 4.654545 11.636364 11.636364-4.654545 11.636364-11.636364 11.636363zM826.181818 861.090909h-130.327273c-4.654545-13.963636-18.618182-23.272727-32.581818-23.272727-18.618182 0-34.909091 16.290909-34.909091 34.909091s16.290909 34.909091 34.909091 34.909091c16.290909 0 27.927273-9.309091 32.581818-23.272728h130.327273c6.981818 0 11.636364-4.654545 11.636364-11.636363s-4.654545-11.636364-11.636364-11.636364z m-162.909091 23.272727c-6.981818 0-11.636364-4.654545-11.636363-11.636363s4.654545-11.636364 11.636363-11.636364 11.636364 4.654545 11.636364 11.636364-4.654545 11.636364-11.636364 11.636363z" fill="#0B3A5B" p-id="5683"></path><path d="M954.181818 512h-186.181818c-9.309091 0-16.290909 2.327273-25.6 4.654545l-34.909091-34.90909c-9.309091-9.309091-25.6-16.290909-39.563636-16.29091h-169.890909c-9.309091 0-18.618182-4.654545-25.6-9.30909l-65.163637-65.163637c-11.636364-11.636364-27.927273-18.618182-41.890909-18.618182H81.454545c-6.981818 0-11.636364 4.654545-11.636363 11.636364s4.654545 11.636364 11.636363 11.636364h283.927273c9.309091 0 18.618182 4.654545 25.6 9.309091l65.163637 65.163636c11.636364 11.636364 25.6 16.290909 41.890909 16.290909h169.890909c9.309091 0 18.618182 4.654545 25.6 9.309091l30.254545 30.254545c-9.309091 6.981818-16.290909 18.618182-20.945454 30.254546h-125.672728c-16.290909 0-30.254545 6.981818-41.890909 16.290909l-18.618182 18.618182c-6.981818 6.981818-16.290909 9.309091-25.6 9.309091H395.636364c-6.981818 0-11.636364 4.654545-11.636364 11.636363s4.654545 16.290909 11.636364 16.290909h97.745454c16.290909 0 30.254545-6.981818 41.890909-16.290909l18.618182-18.618182c6.981818-6.981818 16.290909-9.309091 25.6-9.30909H698.181818v69.818181h-128c-6.981818 0-11.636364 4.654545-11.636363 11.636364s4.654545 11.636364 11.636363 11.636364H698.181818c0 30.254545 18.618182 55.854545 46.545455 65.163636l-18.618182 18.618182c-6.981818 6.981818-16.290909 9.309091-25.6 9.309091h-123.345455c-4.654545-13.963636-18.618182-23.272727-32.581818-23.272728-18.618182 0-34.909091 16.290909-34.909091 34.909091s16.290909 34.909091 34.909091 34.909091c16.290909 0 27.927273-9.309091 32.581818-23.272727h123.345455c16.290909 0 30.254545-6.981818 41.890909-16.290909l30.254545-30.254546H954.181818c39.563636 0 69.818182-30.254545 69.818182-69.818181v-93.090909c0-41.890909-30.254545-72.145455-69.818182-72.145455zM546.909091 791.272727c-6.981818 0-11.636364-4.654545-11.636364-11.636363s4.654545-11.636364 11.636364-11.636364 11.636364 4.654545 11.636364 11.636364-4.654545 11.636364-11.636364 11.636363zM977.454545 674.909091c0 13.963636-9.309091 23.272727-23.272727 23.272727h-186.181818c-13.963636 0-23.272727-9.309091-23.272727-23.272727v-93.090909c0-13.963636 9.309091-23.272727 23.272727-23.272727h186.181818c13.963636 0 23.272727 9.309091 23.272727 23.272727v93.090909z" fill="#0B3A5B" p-id="5684"></path></svg>